<svg width="188" height="265" viewBox="0 0 188 265" fill="none" xmlns="http://www.w3.org/2000/svg">
<path d="M39.6632 241.224C36.1799 249.564 24.2975 249.371 21.0876 240.922L10.3188 212.576C7.80802 205.967 12.7609 198.911 19.8297 199.026L42.2843 199.392C49.3531 199.507 54.0737 206.721 51.3491 213.244L39.6632 241.224Z" fill="#6A8EE9"/>
<path d="M100.537 240.186C96.9589 248.258 85.4383 248.071 82.1251 239.886L69.8168 209.479C67.7186 204.296 70.2785 198.4 75.4979 196.393L87.2077 191.892C89.6826 190.94 92.4341 191.011 94.8571 192.087L102.071 195.293L107.752 197.296C113.252 199.234 115.933 205.448 113.57 210.779L100.537 240.186Z" fill="#6A8EE9"/>
<path d="M156.13 92.7466C166.022 95.5204 167.05 109.136 157.686 113.364L130.277 125.739C123.32 128.88 115.357 124.153 114.782 116.541L113.235 96.0464C112.66 88.4346 119.824 82.5658 127.174 84.6269L156.13 92.7466Z" fill="#6A8EE9"/>
<rect x="1.00002" y="147" width="120" height="57" rx="28.5" fill="#6A8EE9"/>
<rect x="1.00002" y="82.7979" width="95.1493" height="10" rx="5" transform="rotate(-22.6464 1.00002 82.7979)" fill="#6A8EE9"/>
<rect x="29" y="132.335" width="64.8078" height="10" rx="5" transform="rotate(-83.075 29 132.335)" fill="#6A8EE9"/>
<rect x="56" y="121.335" width="64.8078" height="10" rx="5" transform="rotate(-83.075 56 121.335)" fill="#6A8EE9"/>
<rect x="118" y="61.4102" width="46.3754" height="10" rx="5" transform="rotate(-20.2303 118 61.4102)" fill="#6A8EE9"/>
<path d="M113 99.3351L108.028 98.174C104.914 97.4469 102.42 95.1224 101.475 92.0675L94.5 69.5L81.8925 42.1113C80.7019 39.5247 78.3575 37.6542 75.5712 37.0676L70.5 36L66.2999 35.6182C65.4378 35.5398 64.5689 35.5862 63.7201 35.756L60.9927 36.3015C60.333 36.4334 59.6902 36.6389 59.0763 36.9141L19.6644 54.5815C17.8808 55.381 15.7826 54.6677 14.856 52.9468V52.9468C13.8459 51.0709 14.6102 48.7315 16.533 47.8138L55.6282 29.1548C56.5363 28.7213 57.5107 28.4433 58.5108 28.3322L64.9769 27.6137C65.6568 27.5381 66.343 27.5404 67.0224 27.6203L73.8323 28.4215C74.2768 28.4738 74.7169 28.5592 75.1487 28.6769L81.5064 30.4108C84.0412 31.1021 86.1473 32.8666 87.2721 35.241L107.368 77.6672C107.77 78.5158 108.513 79.1541 109.412 79.4239V79.4239C111.319 79.9959 113.297 78.7709 113.634 76.809L120.06 39.3911C120.535 36.624 122.274 34.2372 124.763 32.9372L139 25.5001L155.712 18.4633C157.122 17.8697 158.744 18.0951 159.938 19.0507V19.0507C162.428 21.0426 161.854 24.9781 158.899 26.1761L147.62 30.7485C147.207 30.916 146.807 31.114 146.423 31.3408L136.89 36.974C136.299 37.3235 135.668 37.6022 135.011 37.8042V37.8042C131.667 38.8332 129.257 41.7547 128.882 45.2335L123.904 91.47C123.366 96.4596 118.852 100.046 113.87 99.4408L113 99.3351Z" fill="#6A8EE9"/>
<path d="M89.5027 171.286C87.5544 170.103 86.121 168.233 85.6241 166.008C84.3401 160.26 82.4496 149.073 86.4709 146.5C91.8308 143.071 94.9912 127.377 95.1172 126.742C95.1212 126.722 95.1231 126.712 95.1272 126.692L101.985 92.821C102.972 87.9493 107.721 84.7996 112.592 85.786L121.726 87.6354C126.369 88.5754 129.488 92.9537 128.861 97.6491L124 134L123 163L121.306 175.828C120.455 182.27 113.266 185.715 107.712 182.342L89.5027 171.286Z" fill="#6A8EE9"/>
<path d="M4.00002 188L119 186L114 209L60 210L10 211L7.25002 197.75L4.00002 188Z" fill="#6A8EE9"/>
</svg>
