<svg width="73" height="89" viewBox="0 0 73 89" fill="none" xmlns="http://www.w3.org/2000/svg">
<path d="M0.455 0.899994H35.264C45.76 0.899994 53.509 3.15499 58.511 7.665C63.513 12.093 66.014 18.981 66.014 28.329C66.014 37.677 63.513 44.606 58.511 49.116C53.509 53.544 45.76 55.758 35.264 55.758H17.798V87H0.455V0.899994ZM35.756 42.228C39.528 42.228 42.603 41.08 44.981 38.784C47.441 36.488 48.671 33.003 48.671 28.329C48.671 23.655 47.441 20.17 44.981 17.874C42.603 15.578 39.528 14.43 35.756 14.43H17.798V42.228H35.756ZM62.817 88.476C60.111 88.476 57.815 87.574 55.929 85.77C54.043 83.884 53.1 81.629 53.1 79.005C53.1 76.381 54.043 74.126 55.929 72.24C57.815 70.272 60.111 69.288 62.817 69.288C65.359 69.288 67.573 70.272 69.459 72.24C71.345 74.126 72.288 76.381 72.288 79.005C72.288 81.629 71.345 83.884 69.459 85.77C67.655 87.574 65.441 88.476 62.817 88.476Z" fill="#5686FF"/>
</svg>
